<?xml version="1.0" encoding="utf-8"?>
<!-- Generator: Adobe Illustrator 19.2.1, SVG Export Plug-In . SVG Version: 6.00 Build 0)  -->
<svg version="1.0" id="Layer_1" xmlns="http://www.w3.org/2000/svg" xmlns:xlink="http://www.w3.org/1999/xlink" x="0px" y="0px"
	 viewBox="0 0 739.5 529.6" style="enable-background:new 0 0 739.5 529.6;" xml:space="preserve">
<style type="text/css">
	.st0{fill:#1D4F90;}
	.st1{fill:#FD9A2B;}
	.st2{fill:#6CAB36;}
	.st3{font-family:'MyriadPro-Regular';}
	.st4{font-size:30.8407px;}
	.st5{font-size:33.3721px;}
	.st6{font-size:31.8532px;}
</style>
<g>
	<path class="st0" d="M80.1,143.3c-6.3,0-12.4-0.8-18.2-2.3c-5.8-1.6-11.2-3.7-16.2-6.6c-5-2.8-9.5-6.2-13.6-10.2
		c-4.1-4-7.6-8.3-10.5-13.1c-2.9-4.8-5.1-10-6.7-15.5c-1.6-5.5-2.4-11.3-2.4-17.2c0-5.9,0.8-11.5,2.4-16.9
		c1.6-5.4,3.8-10.4,6.7-15.1c2.9-4.7,6.4-9,10.5-12.8c4.1-3.8,8.6-7.1,13.6-9.9c5-2.8,10.4-4.9,16.2-6.4c5.8-1.5,11.9-2.2,18.2-2.2
		c6.3,0,12.4,0.7,18.2,2.2c5.8,1.5,11.2,3.6,16.2,6.4c5,2.8,9.5,6.1,13.6,9.9c4.1,3.8,7.6,8.1,10.5,12.8c2.9,4.7,5.1,9.7,6.7,15.1
		c1.6,5.4,2.4,11,2.4,16.9c0,5.9-0.8,11.7-2.4,17.2s-3.8,10.7-6.7,15.5c-2.9,4.8-6.4,9.2-10.5,13.1c-4.1,4-8.7,7.3-13.6,10.2
		c-5,2.8-10.4,5-16.2,6.6C92.5,142.5,86.4,143.3,80.1,143.3z M80.1,137.1c7,0,13.2-1.5,18.6-4.4c5.4-2.9,9.9-7,13.6-12.2
		c3.7-5.2,6.5-11.4,8.4-18.6c1.9-7.2,2.9-15,2.9-23.5c0-8.4-1-16.1-2.9-23.1c-1.9-7-4.7-13-8.4-18.1c-3.7-5.1-8.2-9-13.6-11.8
		c-5.4-2.8-11.6-4.2-18.6-4.2c-7.2,0-13.4,1.4-18.9,4.2c-5.4,2.8-10,6.8-13.6,11.8c-3.6,5.1-6.4,11.1-8.2,18.1
		c-1.8,7-2.8,14.7-2.8,23.1c0,8.5,0.9,16.3,2.8,23.5c1.8,7.2,4.6,13.4,8.2,18.6c3.6,5.2,8.2,9.3,13.6,12.2
		C66.6,135.6,72.9,137.1,80.1,137.1z"/>
	<path class="st0" d="M174.8,84.1c0,6,0.9,11.4,2.7,16.2c1.8,4.8,4.3,8.8,7.4,12.1c3.2,3.3,6.9,5.8,11.2,7.6c4.3,1.7,9,2.6,14.1,2.6
		c3,0,5.9-0.6,8.7-1.8c2.8-1.2,5.4-2.7,7.8-4.6c2.4-1.9,4.5-4,6.4-6.3c1.9-2.4,3.4-4.8,4.7-7.2l6,3.9c-1.8,2.9-3.8,5.6-6.2,8.3
		c-2.4,2.7-5.2,5-8.3,7.1c-3.2,2-6.7,3.7-10.7,4.9s-8.4,1.8-13.4,1.8c-4.7,0-9.2-0.5-13.4-1.6c-4.2-1.1-8-2.6-11.5-4.6
		c-3.5-1.9-6.6-4.3-9.4-7c-2.8-2.7-5.1-5.8-7-9.1c-1.9-3.3-3.4-6.8-4.4-10.6c-1-3.8-1.5-7.7-1.5-11.7s0.5-7.9,1.6-11.7
		c1-3.8,2.5-7.4,4.5-10.7c1.9-3.3,4.3-6.4,7.2-9.2c2.8-2.8,6-5.2,9.6-7.2c3.5-2,7.4-3.5,11.7-4.6c4.2-1.1,8.7-1.7,13.5-1.7
		c4.6,0,8.8,0.6,12.6,1.8c3.8,1.2,7.3,2.9,10.5,4.9c3.2,2,6,4.4,8.5,7c2.5,2.7,4.6,5.4,6.3,8.3l-6.2,4.2c-3.6-6.9-7.6-12-12.1-15.3
		c-4.4-3.2-9.5-4.9-15.3-4.9c-5,0-9.6,0.9-13.9,2.7c-4.3,1.8-8.1,4.4-11.3,7.8c-3.2,3.4-5.7,7.4-7.6,12.3
		C175.7,72.6,174.8,78,174.8,84.1z"/>
	<path class="st0" d="M274.4,82.1c0,6,0.9,11.4,2.7,16.2c1.8,4.8,4.3,8.8,7.4,12.1c3.2,3.3,6.9,5.8,11.2,7.6c4.3,1.7,9,2.6,14.1,2.6
		c3,0,5.9-0.6,8.7-1.8c2.8-1.2,5.4-2.7,7.8-4.6c2.4-1.9,4.5-4,6.4-6.3c1.9-2.4,3.4-4.8,4.7-7.2l6,3.9c-1.8,2.9-3.8,5.6-6.2,8.3
		c-2.4,2.7-5.2,5-8.3,7.1c-3.2,2-6.7,3.7-10.7,4.9c-4,1.2-8.4,1.8-13.4,1.8c-4.7,0-9.2-0.5-13.4-1.6c-4.2-1.1-8-2.6-11.5-4.6
		c-3.5-1.9-6.6-4.3-9.4-7c-2.8-2.7-5.1-5.8-7-9.1c-1.9-3.3-3.4-6.8-4.4-10.6c-1-3.8-1.5-7.7-1.5-11.7s0.5-7.9,1.6-11.7
		c1-3.8,2.5-7.4,4.5-10.7c1.9-3.3,4.3-6.4,7.2-9.2c2.8-2.8,6-5.2,9.6-7.2c3.5-2,7.4-3.5,11.7-4.6c4.2-1.1,8.7-1.7,13.5-1.7
		c4.6,0,8.8,0.6,12.6,1.8c3.8,1.2,7.3,2.9,10.5,4.9c3.2,2,6,4.4,8.5,7c2.5,2.7,4.6,5.4,6.3,8.3l-6.2,4.2c-3.6-6.9-7.6-12-12.1-15.3
		c-4.4-3.2-9.5-4.9-15.3-4.9c-5,0-9.6,0.9-13.9,2.7c-4.3,1.8-8.1,4.4-11.3,7.8c-3.2,3.4-5.7,7.4-7.6,12.3S274.4,76.1,274.4,82.1z"/>
	<path class="st0" d="M157.9,26.7V15h244.7h27.2c4.5,0,8.7,0.6,12.6,1.7c3.9,1.2,7.3,2.9,10.2,5.1s5.2,5,6.9,8.2
		c1.7,3.3,2.5,7,2.5,11.1c0,4.2-0.8,7.8-2.4,10.9c-1.6,3.1-3.8,5.7-6.4,7.7c-2.6,2-5.7,3.6-9.1,4.5c-3.4,1-6.8,1.5-10.3,1.5
		c-1.5,0-3,0-4.7-0.1c-1.6-0.1-3.2-0.2-4.7-0.4c-1.5-0.2-2.9-0.3-4.2-0.5c-1.3-0.2-2.3-0.4-3.1-0.6v60.4h-14.4v-98L157.9,26.7z
		 M417.1,59.2c1.6,0.5,3.3,0.9,5.2,1.4c1.9,0.4,3.8,0.7,5.7,0.7c3.1,0,5.8-0.5,8.2-1.5c2.3-1,4.2-2.3,5.8-4.1
		c1.5-1.7,2.7-3.8,3.4-6.1c0.8-2.3,1.1-4.8,1.1-7.4c0-3.1-0.5-5.9-1.5-8.4c-1-2.5-2.4-4.7-4.1-6.4c-1.7-1.8-3.8-3.1-6.1-4.1
		c-2.3-1-4.8-1.4-7.5-1.4h-10.2V59.2z"/>
	<path class="st0" d="M474.6,38.9H489v85.8h-14.4V38.9z"/>
	<path class="st0" d="M578.8,38.9v5.5h-30v80.2h-15.5V44.5h-31.1v-5.5H578.8z"/>
	<path class="st0" d="M617.5,37l40.4,87.7h-14.7l-13.1-28.6h-36.8l-13.5,28.6h-7.2L613.9,37H617.5z M595.8,90.5h31.6l-15.6-33.9
		L595.8,90.5z"/>
	<path class="st0" d="M668.9,38.9h15.5v80.2h42.1v5.5h-57.6V38.9z"/>
</g>
<g>
	<path class="st1" d="M36.9,216.1c0,8.6,1.3,16.3,3.9,23.1c2.6,6.8,6.1,12.6,10.6,17.3c4.5,4.7,9.9,8.3,16.1,10.8
		c6.2,2.5,12.9,3.7,20.1,3.7c4.3,0,8.4-0.8,12.4-2.5c4-1.7,7.7-3.8,11.1-6.5c3.4-2.7,6.5-5.7,9.2-9.1c2.7-3.4,4.9-6.8,6.7-10.2
		l8.6,5.5c-2.5,4.1-5.5,8.1-8.9,11.9c-3.4,3.8-7.4,7.2-11.9,10.1c-4.5,2.9-9.6,5.2-15.3,7c-5.7,1.8-12,2.6-19.1,2.6
		c-6.7,0-13.1-0.8-19.1-2.3c-6-1.6-11.5-3.7-16.5-6.5c-5-2.8-9.5-6.1-13.5-10.1c-4-3.9-7.3-8.3-10-13c-2.7-4.7-4.8-9.8-6.3-15.2
		c-1.5-5.4-2.2-11-2.2-16.7s0.7-11.3,2.2-16.8c1.5-5.4,3.6-10.5,6.4-15.3c2.8-4.8,6.2-9.2,10.2-13.1c4-4,8.6-7.4,13.7-10.2
		c5.1-2.8,10.6-5.1,16.7-6.6c6-1.6,12.5-2.4,19.3-2.4c6.5,0,12.5,0.9,18,2.6c5.5,1.8,10.5,4.1,15,7c4.5,2.9,8.6,6.3,12.1,10.1
		c3.5,3.8,6.5,7.8,9.1,11.9l-8.9,6c-5.2-9.9-10.9-17.2-17.2-21.8c-6.3-4.6-13.6-6.9-21.8-6.9c-7.1,0-13.7,1.3-19.9,3.9
		c-6.2,2.6-11.5,6.3-16.1,11.1c-4.6,4.8-8.2,10.6-10.8,17.5S36.9,207.5,36.9,216.1z"/>
	<path class="st1" d="M206.7,260.6c-4.4,0-8.7-0.5-12.7-1.6c-4.1-1.1-7.8-2.6-11.3-4.6c-3.5-2-6.7-4.3-9.5-7.1
		c-2.9-2.8-5.3-5.8-7.3-9.2c-2-3.4-3.6-7-4.7-10.8c-1.1-3.9-1.7-7.9-1.7-12.1c0-4.1,0.6-8,1.7-11.8c1.1-3.8,2.7-7.3,4.7-10.6
		c2-3.3,4.5-6.3,7.3-9c2.9-2.7,6.1-5,9.5-6.9c3.5-1.9,7.3-3.4,11.3-4.5c4.1-1,8.3-1.6,12.7-1.6s8.7,0.5,12.7,1.6
		c4.1,1,7.8,2.5,11.3,4.5c3.5,1.9,6.7,4.2,9.5,6.9c2.9,2.7,5.3,5.7,7.3,9c2,3.3,3.6,6.8,4.7,10.6c1.1,3.8,1.7,7.7,1.7,11.8
		c0,4.1-0.6,8.2-1.7,12s-2.7,7.5-4.7,10.9c-2,3.4-4.5,6.4-7.3,9.2c-2.9,2.8-6.1,5.1-9.5,7.1c-3.5,2-7.3,3.5-11.3,4.6
		C215.4,260.1,211.1,260.6,206.7,260.6z M206.7,256.3c4.9,0,9.2-1,13-3.1c3.8-2.1,6.9-4.9,9.5-8.6c2.6-3.7,4.5-8,5.8-13
		c1.3-5,2-10.5,2-16.5c0-5.9-0.7-11.3-2-16.2c-1.3-4.9-3.3-9.1-5.8-12.7c-2.6-3.5-5.7-6.3-9.5-8.3c-3.8-2-8.1-3-13-3
		c-5,0-9.4,1-13.2,3c-3.8,2-7,4.7-9.5,8.3c-2.5,3.6-4.5,7.8-5.8,12.7c-1.3,4.9-1.9,10.3-1.9,16.2c0,6,0.6,11.4,1.9,16.5
		c1.3,5,3.2,9.4,5.8,13c2.5,3.7,5.7,6.5,9.5,8.6C197.3,255.3,201.7,256.3,206.7,256.3z"/>
	<path class="st1" d="M276.6,175.6h29.7c5.2,0,9.7,0.6,13.6,1.7c3.9,1.1,7.1,2.7,9.7,4.6c2.6,2,4.5,4.4,5.8,7.1c1.3,2.7,2,5.7,2,9
		c0,2.7-0.5,5.2-1.5,7.5c-1,2.3-2.4,4.4-4.3,6.3c-1.8,1.9-4.1,3.5-6.6,4.9c-2.6,1.4-5.4,2.4-8.6,3.2l31.2,41.6h-16.7L301.1,221H291
		v40.3h-14.4V175.6z M291,216.7h8.3c3.2,0,6.2-0.4,9-1.3c2.7-0.9,5.1-2.1,7.1-3.7c2-1.6,3.6-3.5,4.7-5.8c1.1-2.3,1.7-4.8,1.7-7.6
		c0-2.5-0.5-4.9-1.4-7c-0.9-2.2-2.2-4-3.8-5.5c-1.6-1.5-3.5-2.7-5.7-3.6c-2.2-0.9-4.6-1.3-7.3-1.3H291V216.7z"/>
</g>
<g>
	<path class="st2" d="M150,412h-20.7V311.6h-0.7L78.4,412h-4.2l-50.8-99.7h-1.4V412h-9.1V289.5h21l47.7,94h1l46.8-94H150v111
		l336.8-0.6v11.5L150,412z"/>
	<path class="st2" d="M231.7,305.6v5.5h-45.2v30.7h30.2v5.5h-30.2v38.5h45.2v5.5h-59.6v-85.8H231.7z"/>
	<path class="st2" d="M259.6,305.6h28.5c8.8,0,16.4,0.8,22.7,2.5c6.3,1.6,11.6,4.3,15.9,7.9c4.8,4.1,8.5,8.8,10.9,14.2
		c2.4,5.4,3.7,11.2,3.7,17.6c0,6-1.1,11.7-3.3,17c-2.2,5.3-5.4,9.9-9.6,13.9c-4.2,4-9.4,7.1-15.6,9.4c-6.2,2.3-13.2,3.4-21.2,3.4
		h-32V305.6z M274.1,385.1h15.3c4.8,0,9.4-0.8,13.7-2.4c4.3-1.6,8-4,11.2-7.1c3.2-3.1,5.7-7,7.5-11.6c1.8-4.6,2.7-9.9,2.7-16
		c0-5.3-0.9-10.1-2.6-14.5c-1.7-4.4-4.1-8.2-7.2-11.4c-3.1-3.2-6.8-5.7-11.1-7.5c-4.3-1.8-9-2.7-14.1-2.7h-15.4V385.1z"/>
	<path class="st2" d="M444.3,303.6l40.4,87.7H470l-13.1-28.6h-36.8l-13.5,28.6h-7.2l41.3-87.7H444.3z M422.7,357.2h31.6l-15.6-33.9
		L422.7,357.2z"/>
</g>
<rect x="364.7" y="37.1" class="st1" width="14.1" height="353.3"/>
<polygon class="st1" points="378,179.2 378.4,186.2 424,186.2 424,179.2 "/>
<g>
	<circle class="st2" cx="595.9" cy="276.9" r="134.3"/>
	<circle class="st0" cx="595.9" cy="276.9" r="121.5"/>
	<path class="st1" d="M579,319.4c1.9,2.7,5.2,3.7,5.1,7.3c-1.2,0.8-2.3,0.7-3.3-0.5c-0.3-0.4-1-0.8-1.4-0.7
		c-4.2,1.2-7.1-1.4-10.2-3.5c-1.4-1-2.6-2.1-2.8-4c-0.1-0.5-1.2-1.2-1.9-1.3c-2.3-0.3-2.9-1-2-3c0.9-2.2,1.1-4.1-0.3-6.4
		c-0.8-1.4,0.2-3.9,0.4-5.9c0-0.1,0.3-0.2,0.4-0.3c2.7-0.6,5.4-1.2,8.1-1.7c0.5-0.1,0.9-0.2,1.3-0.4c0.4-0.2,0.7-0.7,1-1
		c-0.4-0.3-0.8-0.8-1.2-0.8c-1.7,0-3.5,0.1-5.2,0.3c-2.6,0.3-5.1,0.8-7.7,1c-0.6,0-1.4-0.9-1.7-1.6c-0.2-0.5-0.1-1.6,0.3-1.8
		c0.7-0.6,1.7-1,2.7-1.1c1.8-0.1,2.8-0.8,3.5-2.4c0.6-1.7,1.5-3.3,2.2-5c0.7-1.6,0.3-2.4-1.5-2.6c-1.4-0.2-2.8-0.4-4.1-0.8
		c-1.3-0.4-2-1.7-1.6-2.8c0.9-2.4,0-3.8-2-5.1c0.4-0.3,0.7-0.4,1-0.6c1-0.6,1.7-1.4,1.3-2.7c-0.4-1.3-0.5-2.8-2.6-2.8
		c-0.8,0-1.5-0.4-2.3-0.6c0.6-0.4,1.3-0.8,1.9-1.2c0.4-0.3,0.9-0.6,1.3-0.9c1.3-0.9,2.3-0.9,3.5,0.4c0.7,0.7,2.1,0.8,3.2,1.2
		c0.4,0.1,0.9,0,1.2,0.2c1.5,0.9,3,1.1,4.7,0.5c0.5-0.2,1.5,0.9,2.4,1.5c0.9-0.8,0.8-2-0.9-5.6c1.9,1.4,2.8,4.1,2.2,6.4
		c-0.3,1.3-1.7,1.4-2.1,1.1c-1.6-1.1-2,0.3-2.2,1.1c-0.8,3.2-1.4,6.5-2,9.8c-0.1,0.5,0.4,1.3,0.8,1.8c0.6,0.7,1.5,1.1,2.2,1.7
		c1,0.9,1.8,1.8,1.2,3.4c-0.2,0.5,0,1.1,0.2,1.6c0.1,0.3,0.7,0.5,1,0.5c0.3,0,0.5-0.5,0.6-0.9c0.4-1.4,0.7-2.8,1.2-4.2
		c0.2-0.5,0.6-0.9,1-1.3c0.4,0.4,0.8,0.8,1.2,1.3c0.1,0.1,0.2,0.2,0.4,0.5c0.4-0.7,0.7-1.3,1.2-2.3c0.4,1.5,0.7,2.6,1,3.8
		c1.2,4.3,2.7,5.5,7.1,5.5c2,0,4.1-0.1,6.1-0.2c0.4,0,0.9-0.3,1.3-0.4c1.7-0.7,3.3-1.5,5-2.1c1.7-0.6,2.1-1.6,0.9-3.7
		c0.9,0.5,1.4,0.7,1.8,1c2.3,1.8,4.9,1.7,7.1-0.5c1.2-1.2,2.1-2.5,3.2-3.8c0.7-0.9,0.6-1.6-0.5-2.1c-1.4-0.7-2.7-1.5-4.1-2.3
		c0.7-0.5,1.6-0.8,1.6-1.2c0.4-3.2,2.8-4.5,5.3-5.7c0.7-0.3,1.3-0.5,0.9-1.5c-0.4-0.9-0.9-1-1.8-0.8c-2.6,0.7-5.2,1.5-8,0.3
		c1.5-2,3.1-3.8,5.4-4.8c1.2-0.5,2.4-0.8,3.5-1.4c2.8-1.4,5.4-2.9,8.2-4.3c0.3-0.2,1.1,0,1.3,0.3c0.3,0.5,0.5,1.2,0.4,1.7
		c-0.1,0.4-0.6,0.8-1,1.2c-1.8,1.9-3.7,3.8-5.6,5.6c-0.5,0.5-1.1,0.8-1.6,1.3c1.3,1.1,3.6,1,4.1-0.4c0.7-2.2,2.6-2.8,4.3-3.6
		c2.1-1,4.2-1.8,6.4-2.4c1.5-0.4,3.1-0.3,4.6-0.5c0.6-0.1,1.2-0.3,1.7-0.7c2.2-1.5,4.3-3,7.1-3.1c1.3-0.1,2.7-0.3,4-0.5
		c0.4-0.1,0.7-0.4,1.1-0.7c-0.3-0.4-0.5-0.7-0.8-1.1c-0.2-0.2-0.5-0.4-0.7-0.6c-1.5-1.5-1.5-3.5,0.2-4.7c1.4-0.9,3-1.6,4.6-2.1
		c2.2-0.7,2.5-1.3,1.2-3.3c-0.4-0.7-0.4-2-1-2.3c-1.6-0.9-2.5-2.9-4.6-2.9c-0.2,0-0.5-0.1-0.6-0.3c-0.5-0.6-0.4-4.5,0.2-5
		c3.5-3.1,7-6.2,10.5-9.3c0.3-0.2,0.7-0.4,0.8-0.7c0.2-0.7,0.6-1.6,0.3-2.1c-0.2-0.5-1.2-0.7-1.9-0.9c-0.4-0.1-0.9,0.2-1.3,0.3
		c-0.9-1.6-0.8-1.8,1-3.6c-2.9-1.3-5.6-2.8-8.4-3.8c-2.1-0.8-4.3-1-6.5-1.5c-0.9-0.2-1.8-0.8-2.7-1.1c-0.6-0.2-1.3-0.6-1.9-0.4
		c-0.3,0.1-0.5,1-0.7,1.7c-2.2-1.8-4.5-3.7-6.8-5.6c-1.3-1.1-2.4-2.4-3.7-3.4c-0.6-0.4-1.5-0.4-2.4-0.6c1.4-2.3,3.5-1.4,5.3-1.4
		c0-0.1,0.1-0.3,0.1-0.4c-3.1-0.5-6.1-1-9.2-1.5c-0.1,0.2-0.2,0.4-0.3,0.6c0.9,0.8,1.8,1.6,2.7,2.3c-0.7,0.8-1.4,1.5-2.2,2.3
		c-0.9-0.7-1.9-1.4-2.8-2.1c-0.5-0.4-1-0.8-1.6-1.1c-3.4-1.6-4.3-1.1-4.9,2.6c-0.1,0.8-0.6,1.5-0.8,2.3c-0.2,0-0.5-0.1-0.7-0.1
		c0-1.4,0-2.9,0-4.3c-3.6-0.9-7.3-1.2-10.6-2.9c0-0.3,0-0.6,0.1-0.8c1.1,0,2.3-0.2,3.4,0c1.1,0.1,2.2,0.6,3.3,0.7
		c0.7,0.1,1.4-0.3,2-0.4c-0.4-1-0.6-2.4-1.3-2.8c-1.3-0.8-3-1-4.5-1.3c-1.8-0.4-3.6-0.6-5.3-1.1c-0.4-0.1-0.7-0.6-0.9-0.8
		c2.2,0.4,4.5,0.9,6.8,1.2c0.9,0.1,2-0.4,2.9-0.6c0.3-0.1,0.7-0.3,1-0.2c2.1,0.3,4.3,0.7,6.4,1.1c0.5,0.1,0.9,0.8,1.4,1.2
		c-0.1,0.1-0.2,0.3-0.3,0.4c-1.1-0.2-2.2-0.5-3.4-0.8c0.6,1.6,3.9,1.3,2.3,4c1.7,0.5,3.2,1,4.5-0.8c0.3-0.4,1.1-0.5,1.7-0.6
		c0.6-0.1,1.2,0.1,1.7-0.1c0.5-0.2,0.9-0.7,1.3-1c-0.4-0.4-0.7-0.9-1.1-1.2c-0.3-0.2-0.8-0.2-1.1-0.5c-0.6-0.3-1.1-0.8-1.6-1.1
		c0.5-0.5,0.9-1,1.5-1.4c0.3-0.3,0.8-0.4,1.1-0.6c-2.9-2.8-6.4-2.2-9.8-1.8c-0.5,0.1-1,0.4-1.4,0.7c-0.2,0.1-0.4,0.5-0.7,0.6
		c-2.2,0.3-4.3,0.5-6.6,0.5c0.9-0.4,1.7-0.7,2.8-1.2c-1.4-0.8-2.7-1.4-3.9-2.1c0-0.2,0.1-0.4,0.1-0.6c0.9,0,1.8-0.2,2.6,0
		c2.8,0.8,5.6,1.1,8.5,0.4c0.5-0.1,1.2-0.4,0.9,0.7c0.4,0,1,0.1,1.3-0.2c1.6-1.4,3.4-1,5.1-0.6c2.1,0.4,4.2,1.1,6.3,1.8
		c0.5,0.2,1.1,0.6,1.3,1.1c0.9,2,2.6,1.8,4.3,1.6c1.5-0.2,2.9-0.4,4.3-0.6c3.3-0.4,6.5,0,9.2,2.1c0.6,0.5,1.2,1.1,1.8,1.7
		c3,3,6.2,5.6,10,7.7c4.3,2.4,8.3,5.5,12.3,8.3c2,1.4,4.2,2.8,5.8,4.5c3.4,3.6,6,7.7,6,13c0,1.7,0.3,3.4,0.6,5.7
		c-0.9-1.6-1.5-2.8-2.2-4c-0.8-1.2-1.6-2.5-2.6-3.5c-1.6-1.6-3.4-2.9-5.1-4.3c-0.3,0.8-0.3,2.5-1.1,3c-0.8,0.5-2.3-0.1-3.8-0.2
		c-0.7,1.1,0.5,3.8-3,3.9c1.4,0.9,2.3,1.4,3,2.1c1.4,1.3,2.6,2.9,4.1,4.1c1,0.8,2.3,1.3,3.4,2c0.8,0.5,1.7,1,2.5,1.6
		c1.9,1.5,4.3,1,5-1.7c2.3,2.2,4.4,4.2,6.2,6c-1.3,0.1-2.5,0.2-3.7,0.3c-0.3,0-0.9,0.5-0.9,0.7c-0.2,2.6-2.5,2.7-4.1,3.7
		c-1.1,0.7-2.5,1.2-1.3,2.9c0.2,0.2,0.1,0.8,0,1.1c-0.4,1.2,0.4,3.3,1.5,3.8c1.5,0.8,3.1,1.5,3.4,3.5c0,0.3,0.6,0.7,1,0.8
		c1,0.3,2.1,0.8,3.2,0.8c0.8,0,1.5-0.7,2.6-1.3c-0.5,2.3-0.9,4.6-1.6,6.9c-0.4,1.6-1,3.2-1.8,4.7c-0.8,1.7-1.6,3.7-2.9,4.9
		c-4.1,3.5-7,8-10.5,12c-1.8,2-3.8,3.9-5.9,5.5c-3.4,2.6-7,5.1-10.6,7.5c-1.4,1-3.2,1.5-4.7,2.3c-2.7,1.3-5.3,3-8.2,4
		c-4.2,1.4-8.7,2.3-13,3.5c-1.3,0.3-2.5,0.9-3.8,1.2c-2.8,0.5-5.6,0.8-8.3,1.4c-2.6,0.7-5.2,1.8-7.8,2.6c-2.5,0.7-5.1,1.3-7.6,1.8
		c-0.9,0.2-1.9,0-2.5-1.2c-0.3-0.6-1.3-0.9-2-1.2c-0.8-0.3-1.7-0.5-2.5-0.7c-1.3-0.3-2-1.1-2-2.5c0-1.4-0.7-2.2-2.1-2.3
		c-5.2-0.1-8.7-3.5-12.4-6.5c-0.8-0.6-1.6-1.1-2.4-1.7c-0.7-0.5-1.3-1.1-1.9-1.6c-1,1.1-1,1.8,0.4,2.8c2.9,1.9,5.9,3.7,8.8,5.7
		c0.5,0.3,1,1,1.1,1.5c0,0.3-0.8,0.8-1.3,1c-1.1,0.5-2.2,0.8-3.3,1.1c-1.4,0.4-1.4,1-0.5,2c0.2,0.3,0.5,0.5,0.7,0.8
		c0.1,0.3,0.3,0.8,0.1,1c-0.2,0.2-0.7,0.3-1.1,0.2C580.6,319.9,580,319.7,579,319.4z M666.9,258.6c0.2,0.1,0.4,0.1,0.6,0.2
		c1-2.5,2-4.9,3-7.4c0.2,0,0.5,0,0.7,0c0.2,0.7,0.8,1.5,0.7,2.2c-0.9,3.8-2.4,7.3-5.6,10c-0.6,0.5-1,1.3-1.3,2
		c-0.5,1.2,0.5,1.5,1.3,1.6c0.5,0.1,1.4-0.5,1.5-0.9c0.6-4.5,3.4-7.7,5.6-11.4c0.9-1.5,0.4-3.2-1-4.2c-1.6-1.1-3.1-1-4.9-0.6
		C667.7,252.9,665.5,255.7,666.9,258.6z M659.2,245.3c2-2.3,2.6-2.5,5.5-2.7c0.5,0,1.3-0.3,1.3-0.5c-0.1-1.1-0.4-2.2-0.6-3.3
		c-0.9,0.2-1.7,0.3-2.6,0.6c-0.3,0.1-0.5,0.5-0.7,0.7c-1.1,1.4-2.3,2.8-3.3,4.3c-0.7,1.2-1.3,2.6-1.7,3.9c-0.1,0.3,0.6,1.2,0.9,1.3
		c0.9,0.1,1.9,0.1,2.7-0.2c1.3-0.6,2.4-1.4,3.6,0c1.3-3.1,1.3-3-1.9-3.3C661.5,246.1,660.5,245.7,659.2,245.3z M662.7,212.8
		c0.1-0.2,0.3-0.3,0.4-0.5c-1.8-1.2-3.6-2.5-5.4-3.7c-2.5-1.6-4.9-3.2-7.9-3.6c-1.8-0.2-2.3,0.1-2.1,1.9c0.1,0.5,0.5,1.2,0.9,1.5
		c1.2,0.6,2.5,1.1,3.7,1.6c1.2,0.5,2.2,0.6,3.3-0.3c0.4-0.3,1.2-0.2,1.7,0.1C659.2,210.8,661,211.8,662.7,212.8z M681.1,245.9
		c-0.4-0.4-0.5-0.9-0.8-0.9c-1.9-0.4-3.9-0.8-5.8-1c-0.1,0-0.5,0.9-0.4,1.2c0.6,1.9,1.4,3.8,0.5,5.9c-0.1,0.2,0.4,0.9,0.7,1
		c1.5,0.2,2.7-0.8,2.8-2.4C678.1,247.8,678.5,246.1,681.1,245.9z M590,310c0-0.5,0-0.8-0.1-0.9c-3.1-3.3-6.1-6.6-9.2-9.8
		c-0.5-0.5-1.4-0.6-2.1-0.9c0.2,0.8,0.5,1.5,0.7,2.3c0.1,0.2,0.2,0.3,0.3,0.4c2.8,2.6,5.6,5.3,8.5,7.9
		C588.6,309.5,589.3,309.6,590,310z M643,199.8c-1.1-3.7-6.2-3.7-9.7-0.7c1.5,0.6,2.7,1.4,4,1.5C639.1,200.6,641,200.1,643,199.8z
		 M632.5,270.8c1.8,1.8,3.3,2.7,5.5,1.7c1.4-0.6,2.9-0.9,4.3-1.4c1-0.4,1.9-0.9,1.6-2.3c-0.3,0.1-0.6,0.1-0.8,0.1
		c-2.5,0.6-5,1.6-7.7,1C634.6,269.8,633.7,270.5,632.5,270.8z M675.5,254.2c-0.1,0.3-0.3,0.6-0.2,0.9c0.2,1.7-0.3,3-1.3,4.3
		c-1.2,1.5-2.2,3.2-3,4.9c-0.5,1.1-0.7,2.4-1.1,3.6c0.3,0.1,0.6,0.3,0.9,0.4c0.8-1.3,1.8-2.5,2.4-3.8c1.2-2.7,2.2-5.4,3.2-7.9
		C676.1,255.8,675.8,255.1,675.5,254.2z M671.2,219c0.1,1.7,0.2,3,1.7,3.1c1.2,0.1,1.3,0.7,1.3,1.6c0.1,1.6,0.6,1.8,1.9,1.1
		c-0.1-0.9-0.3-1.8-0.2-2.6c0.2-1.1-0.2-1.7-1.1-2.1C673.7,219.7,672.6,219.4,671.2,219z M662.9,236.8c-0.1-0.2-0.2-0.7-0.5-0.8
		c-0.2-0.1-0.7,0.1-0.9,0.3c-1.2,1.1-2.5,1.8-4.3,1.3c-0.4-0.1-1.2,0.5-1.4,1c-0.2,0.4,0.1,1.1,0.2,1.6c0.6-0.1,1.1-0.2,1.7-0.4
		c1.2-0.4,2.4-1.3,3.5-1.2C662.6,238.6,662.7,237.9,662.9,236.8z M662,215.4c-2.2-0.4-4-0.8-5.7-1.2c-0.1,0.2-0.1,0.4-0.2,0.6
		c0.4,0.4,0.8,0.8,1.2,1.2C659.4,218.3,659.4,218.3,662,215.4z M664.1,263.5c-0.8,0-1.5-0.2-2.1-0.1c-0.4,0.1-1,0.4-1.1,0.7
		c-0.3,0.6-0.3,1.4-0.5,2.1c0.6,0.1,1.2,0.4,1.8,0.3C663.7,266.1,664,264.9,664.1,263.5z M646.1,207.3c0.1-1.8-1.2-2.7-2.6-3.3
		c-0.5-0.2-1.2-0.1-1.9-0.1c0.4,0.6,0.6,1.4,1.1,1.7C643.7,206.3,644.9,206.8,646.1,207.3z M622.3,271.1c-0.5,0.6-1.1,1.3-1.6,2
		c0.9,0.7,1.6,1.2,2.4,1.8c0.6-0.7,1.1-1.3,1.6-2C623.8,272.3,623.2,271.8,622.3,271.1z M672.5,271.6c0-0.1,0.1-0.3,0.1-0.4
		c-1.1-0.3-2.1-0.8-3.2-0.9c-0.5-0.1-1,0.5-1.6,0.7c0.5,0.3,1,0.8,1.5,0.8C670.3,271.9,671.4,271.7,672.5,271.6z M644.1,211.1
		c0.1-0.3,0.2-0.5,0.3-0.8c-1.2-0.6-2.5-1.1-3.7-1.7c-0.1,0.2-0.2,0.4-0.3,0.7C641.4,210.3,642.4,211.4,644.1,211.1z M666.7,222.4
		c0.3,0.1,0.7,0.2,1,0.3c0.2-0.7,0.4-1.4,0.6-2.2c0,0-0.6-0.2-1-0.3C667.1,220.9,666.9,221.7,666.7,222.4z"/>
	<path class="st1" d="M534.7,220c-0.8,2.2-1.5,4.2-2.2,6.3c-0.1,0.2,0.1,0.4,0.3,1.3c0.6-1.1,1.1-1.9,1.5-2.6
		c0.2,0.1,0.4,0.3,0.7,0.4c0.1,1.5-0.8,2.7-1.4,4c-0.2,0.5-0.1,1.1-0.2,1.6c0.5,0,1,0,1.4,0.1c0.1,0.1,0.2,0.2,0.3,0.3
		c-1.3,0.8-2.4,1.9-3.8,2.3c-4.4,1.2-6.1,4.8-7.6,8.4c-0.5,1.2-0.2,2.7,0,4.1c0.1,0.9,0.5,1.7-0.9,2.2c-0.2-1.8-0.4-3.5-0.6-5.2
		c-0.2,0-0.4-0.1-0.6-0.1c-0.6,1.2-1.3,2.3-1.7,3.6c-0.8,2.2-1.8,4-4.3,4.7c-0.9,0.3-1.8,1.2-2.4,2c-1.3,1.8-2.3,3.8-3.5,5.6
		c-0.6-2.3-1.2-4.6-1.8-6.9c-0.1-0.1-0.3-0.1-0.4-0.2c-0.9,1.9-1.7,3.9-2.6,5.9c-0.4-0.4-0.7-0.6-1-1c-0.1,0.2-0.2,0.3-0.3,0.5
		c-1.7,2.9-2.6,5.9-2.1,9.4c0.3,2.3-0.2,4.8-0.3,7.2c0,0.6,0,1.2,0,1.9c3-0.6,3.2-2.9,3.3-5.2c0.2,0,0.5,0,0.7,0
		c0.2,0.7,0.5,1.4,0.5,2.1c-0.1,1.4-0.6,2.8-0.7,4.2c-0.1,1.5-0.4,2.2-2.1,1.9c-0.8-0.1-1.7,0.5-2.6,0.8c-0.3-1.5-1.5-3.1,0.4-4.6
		c-1.6-0.8-1.8-1-0.9-2.4c1.1-1.7,1-3.4,0.8-5.4c-0.4-4.2,0.1-8.3,2.6-11.9c2.1-3,3.6-6.1,3.7-10c0.1-2.4,1.5-4.5,3.3-6.2
		c1.2-1.1,1.9-2.2,2.1-3.9c0.4-2.6,1.3-5.1,3.3-7c1.1-1.1,2.2-2.1,3.4-3.1c0.2-0.2,0.5-0.4,0.4-0.5c-0.7-2,1.2-3.3,1.4-5.1
		c0.1-0.6,0.6-1.2,1-1.8c1.2-1.7,2.4-3.3,3.6-4.9c0.4-0.5,0.4-1.3,1.6-0.9c0.3,0.1,1.3-1,1.8-1.7c0.5-0.6,0.7-1.3,1.2-1.9
		c0.2-0.2,0.7-0.2,1.1-0.3c0,0.4,0.2,0.8,0.1,1.1c-0.6,1.3-0.5,3.1-2.5,3.5c-0.2,0-0.3,0.6-0.5,0.9c-0.3,0.7-0.6,1.5-1,2.2
		c-1,1.6-1.6,1.6-2.5,0c-1.7,1.9-1.9,3.4-0.6,5.5c1.5-0.7,2.9-1.3,3.7-3.1c0.6-1.3,1.6-2.3,2.4-3.5c0.1-0.2,0.3-0.4,0.2-0.6
		c-0.1-2.8,2-4.3,3.5-6.2c-0.7,3.1-1.2,6.3-2.1,9.3c-0.3,1-1.2,2.3-2.1,2.5c-3,0.9-3.6,3.3-4.1,5.8c-0.5,2.3-0.8,4.6-1.5,6.9
		c-0.6,2.2-2.6,3.2-4.4,4.3c-1.8,1.1-3.6,2.2-3.9,4.7c1.2-0.1,2.3-0.1,3.7-0.2c-1.8,3.2-5.6,4.5-6.7,8.1c0.4,0.2,0.7,0.3,0.9,0.4
		c0.3,0.1,0.6,0.2,0.6,0.2c2.3-2.9,4.6-5.6,6.8-8.4c0.2-0.3,0.5-0.6,0.5-0.9c-0.2-2.8,1.8-4.2,3.5-5.9c1-0.9,1.9-1.9,2.8-2.9
		c0.2-0.3,0.4-0.8,0.6-0.8c2.1-0.5,1.9-2.3,2.1-3.8c0.3-1.6,0.3-3.3,0.6-4.9C531.7,220,532.4,219.7,534.7,220z M516.9,228.9
		c-0.2,0-0.3-0.1-0.5-0.1c-1,3.5-2,7-3,10.8C517.6,236.6,516.1,232.4,516.9,228.9z M507.3,245.7c0.2,0.1,0.5,0.3,0.7,0.4
		c1.1-1.7,2.1-3.4,3.2-5.1c-0.2-0.1-0.4-0.3-0.6-0.4C509.5,242.3,508.4,244,507.3,245.7z M521.2,225.9c-0.2-0.1-0.5-0.2-0.7-0.4
		c-0.7,1.6-1.4,3.2-2.1,4.8c0.2,0.1,0.5,0.2,0.7,0.3C519.8,229.1,520.5,227.5,521.2,225.9z"/>
	<path class="st1" d="M541.6,315.1c2.1,0.3,3.7,0.6,5.2,0.8c0.4-3.4,3.1-4.5,6-2.6c1,0.7,2,1.3,3,1.9c1.8,1,2.8,2.4,2.6,4.6
		c4.2-1.1,6.4,2.4,9.3,4.1c0.2,0.1,0,1.3-0.4,1.7c-1.8,1.9-4.1,2.4-6.6,2.6c-2.2,0.2-4.4,0.2-6.6,0.6c-0.8,0.1-1.7,0.7-2.2,1.4
		c-1,1.2-2,2.3-3.7,2.8c-1.2,0.3-2.2,1.5-3.4,2.1c-1,0.5-2.2,0.7-3.3,1c-0.1-0.2-0.1-0.4-0.2-0.6c1.3-0.7,2.7-1.4,4-2
		c-0.1-0.2-0.2-0.5-0.4-0.7c-0.3,0.2-0.6,0.5-1,0.6c-0.6,0.2-1.2,0.4-1.8,0.6c-0.1-0.5-0.1-1.1-0.4-1.4c-0.7-0.8-1.5-1.6-2.3-2.2
		c-0.8-0.5-1.7-0.7-2.7-1c0.6-0.9,1.2-1.6,1.8-2.4c-0.8-1.3-3.5-0.5-3.5-3.5c1.1,0.7,2,1.1,2.7,1.7c2.6,2,6.2,1,7.2-2.2
		c0.1-0.5-0.1-1.2-0.3-1.7C543.7,319.2,542.8,317.4,541.6,315.1z"/>
	<path class="st1" d="M636,235c-1.5-0.7-3.1-0.2-4.6,0.9c-0.3,0.2-1.7-0.5-2.1-1.1c-0.4-0.5-0.5-1.8-0.1-2.3c1.9-2.1,4-4,6.1-6
		c0.8-0.8,1.5-0.6,2.1,0.1c1,1.1,1.9,2.4,2.8,3.6c0.1,0.2,0.2,0.4,0.3,0.6C640.5,232.1,637.6,235,636,235z"/>
	<path class="st1" d="M617.9,229.8c-0.5,1.7-1.4,3.1-1.3,4.4c0.1,1.6,0.9,3.3,1.6,4.8c0.9,1.9,1.6,3.8,1,6.4
		c-0.5-1.2-0.8-2.1-1.3-2.7c-0.5-0.6-1.3-1.3-2-1.5c-2.6-0.4-5.2-2.9-5.5-5.6c-0.2-1.7,0.4-2.9,2.1-3.6
		C614.1,231.4,615.8,230.7,617.9,229.8z"/>
	<path class="st1" d="M542,265.1c0-0.8-0.1-1.5,0-2.3c0.8-4.2,1.6-8.5,2.7-12.7c0.6-2.2,1.5-4.4,2.7-6.3c2-3,3.2-6.4,4.2-9.8
		c0.7-2.4,1.7-3.8,3.4-4.8c-4.3,11.9-10.4,23.2-12.2,36C542.5,265.2,542.2,265.2,542,265.1z"/>
	<path class="st1" d="M559.5,196.5c-1.1,0.8-2.3,1.6-3.5,2.5c-0.2-0.1-0.5-0.4-1-0.8c-0.2,0.8-0.3,1.5-0.4,2.1
		c1.1,0.2,2.1,0.3,3.1,0.5c0,0.2,0,0.5,0,0.7c-2.1,0.2-4.2,0.4-6.3,0.7c-0.6,0.1-1.2,0.6-1.8,1c-0.1,0.1-0.1,0.4-0.2,0.5
		c-0.8,0.5-1.7,1-2.6,1.5c-0.3-0.8-0.9-1.6-0.9-2.5c0-3,1.2-4.1,4.2-4.2c2.1,0,4.1,0,5.8-1.7c0.7-0.7,2.3-0.4,3.4-0.6
		C559.3,196.3,559.4,196.4,559.5,196.5z"/>
	<path class="st1" d="M596.5,270.5c-0.2-1.1-0.5-2.2-0.6-3.3c-0.7-5.8,1.3-10.8,3.9-15.8c0.4-0.7,0.6-1.4,1.1-2
		c0.4-0.4,1-0.6,1.6-0.8c0.1,0.6,0.3,1.1,0.3,1.7c0,0.3-0.2,0.7-0.4,1c-3.3,5.9-5.2,12.3-5.2,19.1
		C597,270.5,596.8,270.5,596.5,270.5z"/>
	<path class="st1" d="M627.7,254.4c-2.2,1-4.2,1.3-6.5,0.8c-1.5-0.3-3.3,0.4-4.9,0.6c-0.9,0.1-1.7,0.4-2.6,0.3c-0.4,0-1-0.4-1.2-0.7
		c-0.1-0.2,0.3-1.1,0.5-1.1c2.1-0.1,3.4-2,5.3-2.4C621.6,251.4,624.9,251.7,627.7,254.4z"/>
	<path class="st1" d="M617.9,211.2c1.2-0.5,2.5-0.9,3.7-1.4c-0.1,0.2-0.1,0.5-0.2,0.7c0.7,1,1.2,2.1,2,3c3.3,3.4,6.8,6.5,11.7,7.4
		c2,0.4,3,1.6,3.3,3.6c-3.9-1.9-7.8-3.6-11.5-5.6c-1.2-0.6-2.3-1.7-3-2.9c-1.3-2-2.8-3.4-5.2-3.8c-0.2,0-0.5-0.3-0.7-0.5
		C618,211.6,617.9,211.4,617.9,211.2z"/>
	<path class="st1" d="M575.9,210c1.4-1.6,2.8-3.2,4.1-4.8l0,0.1c2.5-2.1,1.5-4.9,1.6-7.7c-0.6,0.1-1.1,0.2-1.7,0.4
		c0.1-0.5,0.2-1,0.3-1c2.1,0.2,1.9-1.7,2.5-2.9c0-0.1,0.2-0.2,0.6-0.6c0.3,0.7,0.7,1.3,0.7,1.9c0.1,1-0.3,2.1-0.1,3.2
		c0.5,3.1-1.4,5.1-2.9,7.4c-0.4,0.6-0.9,1.1-1.1,1.5c2.2,0.5,4.2,1,6.6,1.6c-1.2,1.4-2.4,1.9-3.5,1.1
		C580.5,208.7,578.2,208.7,575.9,210L575.9,210z"/>
	<path class="st1" d="M636.3,243.4c-1-0.6-2-0.9-2.4-1.5c-0.3-0.4,0.1-1.5,0.4-2.1c0.8-1.2,1.7-2.4,2.6-3.5c0.2-0.2,0.7-0.3,1-0.3
		c0.3,0,0.5,0.2,0.8,0.3c2.7,1,3.2,2.2,1.4,4.5C639.3,241.9,637.7,242.5,636.3,243.4z"/>
	<path class="st1" d="M587.7,265.4c0.4,1.3,1.2,2.9,1.3,4.5c0,1.7-1.7,2-3.1,2.3c-1.5,0.3-2.9,0-3.7-1.3c-0.6-0.8,0.5-2.5,1.8-3.2
		C585.2,267.1,586.3,266.3,587.7,265.4z"/>
	<path class="st1" d="M561.6,204.2c1.1-0.3,2.3-0.7,3.4-0.9c1.6-0.2,3.1-0.4,4.7-0.4c0.6,0,1.1,0.3,1.7,0.4c0.7,0.2,1.5,0.4,2.2,0.6
		c0.5,0.2,1.1,0.3,1.2,0.6c0.1,0.4-0.1,1.1-0.4,1.4c-1,0.7-2.3,1.2-3.3,0.2c-1.1-1.1-2-1-3.3-0.2c-1,0.6-2.2,1.2-2.5-0.9
		c0-0.3-0.8-0.7-1.3-0.7c-0.8,0-1.6,0.3-2.3,0.5C561.7,204.6,561.7,204.4,561.6,204.2z"/>
	<path class="st1" d="M537.4,222.6c0-1.2-0.4-2.1-0.1-2.6c1.3-2.2,2.7-4.3,4.2-6.4c0.8-1.2,1.8-2.2,2.8-3.3
		C545.1,212.8,542.4,217.9,537.4,222.6z"/>
	<path class="st1" d="M565.5,242c1.2,1.3,1.4,7.5,0.7,13.7C564.1,253,563.7,244.9,565.5,242z"/>
	<path class="st1" d="M576.6,193.7c0.9,3,0.6,5.4-2.5,6.6c0.6-1.3,1.2-2.6,2-4.2c-2.5,0.4-4.7,0.8-6.6-1.4
		C572.2,194.3,574.5,194,576.6,193.7z"/>
	<path class="st1" d="M548.2,212.1c-0.9,2.7-10.2,14.9-11.2,15.2c-0.1-1.7,0.8-3.5,2.3-4.2c0.4-0.2,0.7-0.5,0.9-0.8
		c2.3-3.1,4.7-6.1,7-9.2C547.5,212.7,547.9,212.5,548.2,212.1z"/>
	<path class="st1" d="M530.7,310.5c-1.2-0.4-2.8,0-3.2-1.9c-0.1-0.3-0.7-0.4-0.9-0.7c-0.3-0.5-0.6-1.1-0.6-1.6
		c0-0.5,0.4-1.2,0.8-1.3c0.4-0.1,1.1,0.2,1.5,0.5c1.1,0.8,2.1,1.7,3.1,2.7c0.4,0.4,0.6,1,0.9,1.6C531.8,310,531.2,310.2,530.7,310.5
		z"/>
	<path class="st1" d="M588.1,209.1c0.3-3.5,0.6-6.6,1-9.9c1.2,0.4,2.2,0.6,3.2,1c-2.1,1.6-1.8,4-1.9,6.4
		C590.3,207.9,589.6,208.6,588.1,209.1z"/>
	<path class="st1" d="M620.3,229.6c2.1,1.7,3.1,3.9,2.5,5.8c-0.1,0.4-0.5,0.9-0.8,1c-0.3,0.1-0.8-0.4-1-0.7c-0.4-0.4-0.6-1-1-1.4
		C618.3,232.4,618.4,231.5,620.3,229.6z"/>
	<path class="st1" d="M505.7,258c0.6,0.9,1.3,1.6,1.5,2.4c0.2,0.6,0.1,1.6-0.3,2c-1.1,1.1-2.4,2.1-3.7,3.1
		C502.7,264.3,504,260.2,505.7,258z"/>
	<path class="st1" d="M530.7,248.9c0.3-2.4,2-3.6,3.2-5c0.7-0.8,1.8-1.4,2.5-2.2c1.2-1.5,2.1-3.1,3.1-4.5c0.8,1.2,0.2,4.4-1.4,5.3
		c-2.9,1.4-5.4,3.1-6.6,6.2C531.4,248.7,531.1,248.7,530.7,248.9z"/>
	<path class="st1" d="M533.4,238.2c0.4-3.4,6.1-8.5,9.2-8.3C538.1,231.5,536.9,236.1,533.4,238.2z"/>
	<path class="st1" d="M568,200.3c-1.1,0-2.2,0.2-3.2-0.1c-0.5-0.1-1.3-1.3-1.1-1.5c0.5-0.8,1.2-1.5,2-1.9c0.6-0.3,1.5-0.1,2.4-0.1
		c0,0.8-0.1,1.8-0.2,2.9C568,199.9,568,200.1,568,200.3z"/>
	<path class="st1" d="M641.4,246.6c0.7-1.4,1.2-2.6,1.8-3.8c-0.3-0.2-0.6-0.4-1.1-0.8c0.4-0.3,0.6-0.7,0.9-0.8
		c0.6-0.2,1.2-0.2,1.8-0.3c0.1,1.1,0.6,2.3,0.2,3.1C644.5,245.3,644,247.3,641.4,246.6z"/>
	<path class="st1" d="M583.1,230.1c-3.9,2.2-9.1-0.8-11.1-3.8C575.5,228.3,578.9,230.4,583.1,230.1z"/>
	<path class="st1" d="M509.9,281.8c3.3,2.9,3.3,2.9,7.8,0.4c0.1,0.1,0.3,0.2,0.4,0.2c-0.7,1.2-1.3,2.4-2.2,3.5
		c-0.3,0.3-1.3,0.3-1.7,0.1c-1.3-0.6-2.7-1.4-3.9-2.3c-0.5-0.4-0.7-1.2-1-1.8C509.6,281.9,509.8,281.9,509.9,281.8z"/>
	<path class="st1" d="M550.1,228.3c-1.7,1.6-3.3,3.2-5.3,5c-0.4-1.2-0.7-2-0.9-2.4c1-0.8,1.7-1.5,2.5-1.9c1-0.6,2.1-1,3.1-1.5
		C549.7,227.8,549.9,228.1,550.1,228.3z"/>
	<path class="st1" d="M580.1,205.2c-0.6,0.5-1.2,1.1-2,1.4c-0.4,0.2-1-0.1-1.6-0.1c0.1-0.5-0.1-1.2,0.2-1.5c1-1.1,2.1-2.1,3.2-3.1
		c0.2,0.1,0.4,0.2,0.6,0.3C580.4,203.3,580.2,204.3,580.1,205.2L580.1,205.2z"/>
	<path class="st1" d="M528,304.3c-0.3-0.7-0.9-1.6-0.8-2.2c0.2-0.8,1.1-1.4,1.7-2.1c0.4,0.5,1.2,1.1,1.1,1.4c-0.3,1-0.9,1.9-1.4,2.8
		C528.4,304.3,528.2,304.3,528,304.3z"/>
	<path class="st1" d="M559.8,205.7c-1.8,2.3-3.7,4.8-5.7,7.4C553.7,210.7,555.7,208.3,559.8,205.7z"/>
	<path class="st1" d="M527.9,259.3c0.5-3.1,1-5.9,1.5-9C530.3,252.1,529.4,258.4,527.9,259.3z"/>
	<path class="st1" d="M509.9,267.8c-0.9,0.9-1.7,1.5-2.4,2.2c-0.3-0.4-0.8-1-0.7-1.3c0.4-0.9,1-1.7,1.6-2.5
		C508.8,266.7,509.2,267.1,509.9,267.8z"/>
	<path class="st1" d="M575.9,210c-1.2,0.9-2.5,1.3-4.4,1c0.9-1,1.5-1.8,2.5-2.9C574.6,208.7,575.2,209.4,575.9,210L575.9,210z"/>
	<path class="st1" d="M512.5,275.9c-1.3,1.1-2,1.9-3.2,3c-0.1-1.4-0.2-2.5-0.3-4C510.2,275.3,511,275.5,512.5,275.9z"/>
	<path class="st1" d="M643.6,228.7c0-1.9,0-3.5,0-5.2C645.4,224.7,645.4,226.8,643.6,228.7z"/>
	<path class="st1" d="M576.7,244.2c0.9-1.5,1.7-3,2.6-4.5c0.7,1.7-0.5,3.9-2.1,4.8C577,244.4,576.9,244.3,576.7,244.2z"/>
	<path class="st1" d="M516.7,271.6c0.2,2.6,0.1,2.6-3.2,2.4C513.8,272.7,513.8,272.7,516.7,271.6z"/>
	<path class="st1" d="M594,189.2c2.4-0.5,4.2,0.7,5.9,1.9c-0.1,0.2-0.2,0.4-0.3,0.6C597.7,190.9,595.8,190.1,594,189.2z"/>
	<path class="st1" d="M546.4,212.1c-0.4-1.2-0.8-2.4-1.2-3.6c0-0.2,0.3-0.6,0.5-0.6c0.4,0,0.9,0.2,1,0.4c0.8,1.2,0.8,2.4,0.3,3.7
		C546.8,212,546.6,212.1,546.4,212.1z"/>
	<path class="st1" d="M574.1,226.4c0.8-2.5,1.5-4.9,2.2-7.2C577.1,221.1,576,224.6,574.1,226.4z"/>
	<path class="st1" d="M594.9,283.5c-1.2-1.1-1.7-2.1-1.2-3.3c0.2-0.4,0.7-0.6,1.1-0.9c0.2,0.4,0.5,0.8,0.5,1.2
		C595.3,281.3,595.1,282.2,594.9,283.5z"/>
	<path class="st1" d="M619.3,218c-0.2,1.6-0.4,3.1-0.6,4.7c-0.3,0-0.6-0.1-1-0.1c0.2-1.6,0.3-3.1,0.5-4.7
		C618.6,217.9,618.9,218,619.3,218z"/>
	<path class="st1" d="M621.4,241.6c-1.2-1.8-2.4-3.6-3.6-5.5c0.2-0.1,0.3-0.2,0.5-0.3c1.2,1.8,2.5,3.6,3.7,5.4
		C621.9,241.4,621.7,241.5,621.4,241.6z"/>
	<path class="st1" d="M539.3,208.6c-1.2-1.5-0.8-3.1,1.1-4.4C540,205.7,539.7,207.2,539.3,208.6z"/>
	<path class="st1" d="M654.3,223.2c-0.2,2.4-2.3,2.1-3.5,3.5C651,225,651.7,224.4,654.3,223.2z"/>
	<path class="st1" d="M525,291.4c-0.5-1.9,1.2-3,1.6-4.6c0.2,0.1,0.4,0.2,0.7,0.2c-0.6,1.5-1.2,3.1-1.7,4.6
		C525.3,291.5,525.1,291.4,525,291.4z"/>
	<path class="st1" d="M633,255.3c1.1-0.7,2.3-1.4,3.6-2.3c-0.1,2.6-1.9,2.4-3.3,2.8C633.2,255.6,633.1,255.4,633,255.3z"/>
	<path class="st1" d="M520.6,283.8c1.8,1.6,1.7,2.1,0,4.1C520.6,286.5,520.6,285.4,520.6,283.8z"/>
	<path class="st1" d="M691.2,252.1c0.1,1.1,0.2,2.2,0.4,3.5C689.8,254.8,689.6,253.4,691.2,252.1z"/>
	<path class="st1" d="M523.8,320c0.9,0.5,1.8,1,2.6,1.5c0.2,0.1,0.2,0.8,0.1,0.9c-0.3,0.2-0.8,0.3-1.1,0.1c-0.8-0.6-1.4-1.3-2.1-1.9
		C523.5,320.5,523.7,320.2,523.8,320z"/>
	<path class="st1" d="M564.6,232.1c0,1.5,0,2.9,0,4.5C563.3,235.3,563.3,233.7,564.6,232.1z"/>
	<path class="st1" d="M572.1,213.6c2.1,0.4,2.3,1,1.7,4.6C573.2,216.4,572.7,215.1,572.1,213.6z"/>
	<path class="st1" d="M541.2,227.6c0.4-0.8,0.9-1.7,1.3-2.5c0.2,0.1,0.4,0.2,0.6,0.3c0.1,1.1,0.1,2.2-1.3,2.6
		C541.6,227.9,541.4,227.7,541.2,227.6z"/>
	<path class="st1" d="M527.1,276.6c-0.6,0.5-1,0.9-1.3,1.2c-0.3-0.3-0.8-0.8-0.8-1c0.2-0.5,0.6-0.9,1-1.2
		C526.1,275.7,526.6,276.2,527.1,276.6z"/>
	<path class="st1" d="M586,322.4c0.6-0.4,1.1-0.9,1.7-1.3c0.2,0.2,0.6,0.7,0.5,0.7c-0.5,0.5-1.1,0.9-1.6,1.4
		C586.5,322.9,586.3,322.6,586,322.4z"/>
	<path class="st1" d="M590.2,239.6c-0.2,1.2-0.5,2.5-0.7,3.7c-0.2,0-0.4-0.1-0.6-0.1c0.2-1.2,0.4-2.5,0.6-3.7
		C589.7,239.5,589.9,239.5,590.2,239.6z"/>
	<path class="st1" d="M566.7,219.8c-0.3-1-0.6-2.1-0.9-3.1c0.3-0.1,0.5-0.2,0.8-0.2c0.3,1,0.6,2.1,0.8,3.1
		C567.2,219.7,567,219.7,566.7,219.8z"/>
	<path class="st1" d="M587.8,259.7c0-1.1,0-2.1,0-3.2c0.2,0,0.5,0,0.7,0c-0.1,1.1-0.2,2.1-0.2,3.2
		C588.1,259.7,588,259.7,587.8,259.7z"/>
	<path class="st1" d="M499,284c0.5-0.5,1-1,1.4-1.5c0.3,0.2,0.5,0.5,0.8,0.7c-0.6,0.4-1.2,0.9-1.7,1.3
		C499.4,284.4,499.2,284.2,499,284z"/>
	<path class="st1" d="M586.6,206c0.2-0.7,0.3-1.5,0.5-2.2c0-0.1,0.5,0,0.8,0.1c-0.1,0.8-0.3,1.5-0.4,2.3
		C587.2,206.1,586.9,206,586.6,206z"/>
</g>
<rect x="7.1" y="439.9" class="st0" width="722.4" height="25"/>
<polygon class="st1" points="368.3,218.2 368.7,224.2 404.2,224.2 394.5,218.2 "/>
<polygon class="st1" points="378,255.2 378.4,261.2 424,261.2 424,255.2 "/>
<g id="inc">
	<text transform="matrix(1.6844 0 0 1 284.1172 511.2815)" class="st1 st3 st4">I</text>
	<text transform="matrix(1.5566 0 0 1 355.2374 512.8577)" class="st1 st3 st5">N</text>
	<text transform="matrix(1.7205 0 0 1 425.0645 512.6067)" class="st1 st3 st6">C.</text>
</g>
</svg>
